<svg width="24" height="24" viewBox="0 0 24 24" fill="none" xmlns="http://www.w3.org/2000/svg">
<path d="M6.24994 20.0001V5.81066L3.53022 8.53039C3.23732 8.82328 2.76256 8.82328 2.46967 8.53039C2.17678 8.2375 2.17678 7.76274 2.46967 7.46984L6.46967 3.46984L6.52631 3.41809C6.82089 3.17778 7.25561 3.19524 7.53022 3.46984L11.5302 7.46984L11.582 7.52648C11.8223 7.82107 11.8048 8.25579 11.5302 8.53039C11.2556 8.80499 10.8209 8.82246 10.5263 8.58215L10.4697 8.53039L7.74994 5.81066V20.0001C7.74994 20.4143 7.41416 20.7501 6.99994 20.7501C6.58573 20.7501 6.24994 20.4143 6.24994 20.0001ZM16.2499 4.00012C16.2499 3.5859 16.5857 3.25012 16.9999 3.25012C17.4142 3.25012 17.7499 3.5859 17.7499 4.00012V18.1896L20.4697 15.4698C20.7626 15.177 21.2373 15.177 21.5302 15.4698C21.8231 15.7627 21.8231 16.2375 21.5302 16.5304L17.5302 20.5304C17.2373 20.8233 16.7626 20.8233 16.4697 20.5304L12.4697 16.5304L12.4179 16.4738C12.1776 16.1792 12.1951 15.7444 12.4697 15.4698C12.7443 15.1952 13.179 15.1778 13.4736 15.4181L13.5302 15.4698L16.2499 18.1896V4.00012Z" fill="#212D34"/>
</svg>
