<svg width="24" height="24" viewBox="0 0 24 24" fill="none" xmlns="http://www.w3.org/2000/svg">
<path d="M7.46973 12.4698C7.76262 12.177 8.23738 12.177 8.53027 12.4698C8.82317 12.7627 8.82317 13.2375 8.53027 13.5304L5.81055 16.2501H20C20.4142 16.2501 20.75 16.5859 20.75 17.0001C20.75 17.4143 20.4142 17.7501 20 17.7501H5.81055L8.53027 20.4698L8.58203 20.5265C8.82234 20.8211 8.80488 21.2558 8.53027 21.5304C8.25567 21.805 7.82095 21.8225 7.52637 21.5821L7.46973 21.5304L3.46973 17.5304C3.17683 17.2375 3.17683 16.7627 3.46973 16.4698L7.46973 12.4698ZM15.4697 2.46984C15.7443 2.19524 16.1791 2.17778 16.4736 2.41809L16.5303 2.46984L20.5303 6.46984L20.582 6.52648C20.8223 6.82107 20.8049 7.25579 20.5303 7.53039L16.5303 11.5304C16.2374 11.8233 15.7626 11.8233 15.4697 11.5304C15.1768 11.2375 15.1768 10.7627 15.4697 10.4698L18.1895 7.75012H4C3.58579 7.75012 3.25 7.41433 3.25 7.00012C3.25 6.5859 3.58579 6.25012 4 6.25012H18.1895L15.4697 3.53039L15.418 3.47375C15.1777 3.17917 15.1951 2.74445 15.4697 2.46984Z" fill="#212D34"/>
</svg>
