<svg width="24" height="24" viewBox="0 0 24 24" fill="none" xmlns="http://www.w3.org/2000/svg">
<path d="M11.4697 4.46984C11.7443 4.19524 12.1791 4.17778 12.4736 4.41809L12.5303 4.46984L19.5303 11.4698L19.582 11.5265C19.8063 11.8014 19.8063 12.1988 19.582 12.4738L19.5303 12.5304L12.5303 19.5304C12.2374 19.8233 11.7626 19.8233 11.4697 19.5304C11.1768 19.2375 11.1768 18.7627 11.4697 18.4698L17.1895 12.7501H5C4.58579 12.7501 4.25 12.4143 4.25 12.0001C4.25 11.5859 4.58579 11.2501 5 11.2501H17.1895L11.4697 5.53039L11.418 5.47375C11.1777 5.17917 11.1951 4.74445 11.4697 4.46984Z" fill="#212D34"/>
</svg>
