<svg width="24" height="24" viewBox="0 0 24 24" fill="none" xmlns="http://www.w3.org/2000/svg">
<path d="M11.2501 5C11.2501 4.58579 11.5859 4.25 12.0001 4.25C12.4143 4.25 12.7501 4.58579 12.7501 5V17.1895L18.4698 11.4697C18.7627 11.1768 19.2375 11.1768 19.5304 11.4697C19.8233 11.7626 19.8233 12.2374 19.5304 12.5303L12.5304 19.5303C12.2558 19.8049 11.8211 19.8223 11.5265 19.582L11.4698 19.5303L4.46984 12.5303L4.41809 12.4736C4.17778 12.1791 4.19524 11.7443 4.46984 11.4697C4.74445 11.1951 5.17917 11.1777 5.47375 11.418L5.53039 11.4697L11.2501 17.1895V5Z" fill="#212D34"/>
</svg>
