<svg width="24" height="24" viewBox="0 0 24 24" fill="none" xmlns="http://www.w3.org/2000/svg">
<path d="M11.2499 19.0001V6.81066L5.53022 12.5304C5.23732 12.8233 4.76256 12.8233 4.46967 12.5304C4.17678 12.2375 4.17678 11.7627 4.46967 11.4698L11.4697 4.46984L11.5263 4.41809C11.8209 4.17778 12.2556 4.19524 12.5302 4.46984L19.5302 11.4698L19.582 11.5265C19.8223 11.8211 19.8048 12.2558 19.5302 12.5304C19.2556 12.805 18.8209 12.8225 18.5263 12.5821L18.4697 12.5304L12.7499 6.81066V19.0001C12.7499 19.4143 12.4142 19.7501 11.9999 19.7501C11.5857 19.7501 11.2499 19.4143 11.2499 19.0001Z" fill="#212D34"/>
</svg>
