<svg width="24" height="24" viewBox="0 0 24 24" fill="none" xmlns="http://www.w3.org/2000/svg">
<path d="M13.0429 20.6387C13.2425 20.2758 13.6985 20.1432 14.0615 20.3428C14.4243 20.5424 14.5568 20.9984 14.3574 21.3613C14.1253 21.7835 13.7837 22.1356 13.3691 22.3809C12.9545 22.626 12.4816 22.7549 11.9999 22.7549C11.5183 22.7549 11.0454 22.626 10.6308 22.3809C10.268 22.1663 9.96077 21.8701 9.73431 21.5166L9.64251 21.3613L9.60931 21.292C9.46091 20.9422 9.59829 20.5299 9.93841 20.3428C10.2787 20.1557 10.7011 20.2603 10.9169 20.5732L10.957 20.6387L11.0429 20.7725C11.1373 20.9002 11.2568 21.0085 11.3945 21.0898C11.5778 21.1982 11.7869 21.2549 11.9999 21.2549C12.2129 21.2549 12.422 21.1982 12.6054 21.0898C12.7888 20.9814 12.9402 20.8254 13.0429 20.6387ZM17.2431 7.73926C17.1786 6.44181 16.6348 5.21101 15.7119 4.28809C14.7273 3.30352 13.3923 2.75 11.9999 2.75C10.6076 2.75 9.27259 3.30352 8.28802 4.28809C7.30346 5.27265 6.74994 6.60761 6.74994 8C6.74994 11.6105 5.97502 13.9868 5.15814 15.4844C5.00107 15.7723 4.84286 16.0265 4.68939 16.25H19.3105C19.157 16.0265 18.9988 15.7723 18.8417 15.4844C18.0249 13.9868 17.2499 11.6105 17.2499 8L17.2431 7.73926ZM18.7499 8C18.7499 11.3892 19.4751 13.5132 20.1581 14.7656C20.5007 15.3937 20.8375 15.8106 21.0761 16.0625C21.1955 16.1885 21.2911 16.2739 21.3515 16.3242C21.3815 16.3492 21.4027 16.3656 21.414 16.374C21.4154 16.3751 21.4168 16.3762 21.4179 16.377H21.4169C21.6911 16.5605 21.8134 16.9019 21.7177 17.2178C21.6218 17.5339 21.3303 17.75 20.9999 17.75H2.99994C2.66958 17.75 2.37807 17.5339 2.28216 17.2178C2.18652 16.9019 2.30874 16.5605 2.58294 16.377H2.58197C2.58306 16.3762 2.58446 16.3751 2.58587 16.374C2.59716 16.3656 2.6184 16.3492 2.64837 16.3242C2.70874 16.2739 2.8044 16.1885 2.92376 16.0625C3.1624 15.8106 3.49914 15.3937 3.84173 14.7656C4.52481 13.5132 5.24994 11.3892 5.24994 8C5.24994 6.20979 5.96063 4.49243 7.2265 3.22656C8.49237 1.96069 10.2097 1.25 11.9999 1.25C13.7901 1.25 15.5075 1.96069 16.7734 3.22656C18.0392 4.49243 18.7499 6.20979 18.7499 8Z" fill="#212D34"/>
</svg>
