<svg width="24" height="24" viewBox="0 0 24 24" fill="none" xmlns="http://www.w3.org/2000/svg">
<path d="M5.46984 6.46984C5.74445 6.19524 6.17917 6.17778 6.47375 6.41809L6.53039 6.46984L11.5304 11.4698L11.5821 11.5265C11.8065 11.8014 11.8065 12.1988 11.5821 12.4737L11.5304 12.5304L6.53039 17.5304C6.2375 17.8233 5.76274 17.8233 5.46984 17.5304C5.17695 17.2375 5.17695 16.7627 5.46984 16.4698L9.93957 12.0001L5.46984 7.53039L5.41809 7.47375C5.17778 7.17917 5.19524 6.74445 5.46984 6.46984ZM12.4698 6.46984C12.7444 6.19524 13.1792 6.17778 13.4738 6.41809L13.5304 6.46984L18.5304 11.4698L18.5821 11.5265C18.8065 11.8014 18.8065 12.1988 18.5821 12.4737L18.5304 12.5304L13.5304 17.5304C13.2375 17.8233 12.7627 17.8233 12.4698 17.5304C12.177 17.2375 12.177 16.7627 12.4698 16.4698L16.9396 12.0001L12.4698 7.53039L12.4181 7.47375C12.1778 7.17917 12.1952 6.74445 12.4698 6.46984Z" fill="#212D34"/>
</svg>
