<svg width="24" height="24" viewBox="0 0 24 24" fill="none" xmlns="http://www.w3.org/2000/svg">
<path d="M10.5263 6.41809C10.8209 6.17778 11.2556 6.19524 11.5302 6.46984C11.8048 6.74445 11.8223 7.17917 11.582 7.47375L11.5302 7.53039L7.06049 12.0001L11.5302 16.4698L11.582 16.5265C11.8223 16.8211 11.8048 17.2558 11.5302 17.5304C11.2556 17.805 10.8209 17.8225 10.5263 17.5821L10.4697 17.5304L5.46967 12.5304C5.17678 12.2375 5.17678 11.7627 5.46967 11.4698L10.4697 6.46984L10.5263 6.41809ZM17.5263 6.41809C17.8209 6.17778 18.2556 6.19524 18.5302 6.46984C18.8048 6.74445 18.8223 7.17917 18.582 7.47375L18.5302 7.53039L14.0605 12.0001L18.5302 16.4698L18.582 16.5265C18.8223 16.8211 18.8048 17.2558 18.5302 17.5304C18.2556 17.805 17.8209 17.8225 17.5263 17.5821L17.4697 17.5304L12.4697 12.5304C12.1768 12.2375 12.1768 11.7627 12.4697 11.4698L17.4697 6.46984L17.5263 6.41809Z" fill="#212D34"/>
</svg>
