<svg width="24" height="24" viewBox="0 0 24 24" fill="none" xmlns="http://www.w3.org/2000/svg">
<path d="M11.5263 12.4181C11.8209 12.1778 12.2556 12.1952 12.5302 12.4698L17.5302 17.4698L17.582 17.5265C17.8223 17.8211 17.8048 18.2558 17.5302 18.5304C17.2556 18.805 16.8209 18.8225 16.5263 18.5821L16.4697 18.5304L11.9999 14.0607L7.53022 18.5304C7.23732 18.8233 6.76256 18.8233 6.46967 18.5304C6.17678 18.2375 6.17678 17.7627 6.46967 17.4698L11.4697 12.4698L11.5263 12.4181ZM11.5263 5.41809C11.8209 5.17778 12.2556 5.19524 12.5302 5.46984L17.5302 10.4698L17.582 10.5265C17.8223 10.8211 17.8048 11.2558 17.5302 11.5304C17.2556 11.805 16.8209 11.8225 16.5263 11.5821L16.4697 11.5304L11.9999 7.06066L7.53022 11.5304C7.23732 11.8233 6.76256 11.8233 6.46967 11.5304C6.17678 11.2375 6.17678 10.7627 6.46967 10.4698L11.4697 5.46984L11.5263 5.41809Z" fill="#212D34"/>
</svg>
