<svg width="24" height="24" viewBox="0 0 24 24" fill="none" xmlns="http://www.w3.org/2000/svg">
<path d="M16.4698 12.4698C16.7627 12.177 17.2375 12.177 17.5304 12.4698C17.8233 12.7627 17.8233 13.2375 17.5304 13.5304L12.5304 18.5304C12.2558 18.805 11.8211 18.8225 11.5265 18.5821L11.4698 18.5304L6.46984 13.5304L6.41809 13.4738C6.17778 13.1792 6.19524 12.7444 6.46984 12.4698C6.74445 12.1952 7.17917 12.1778 7.47375 12.4181L7.53039 12.4698L12.0001 16.9396L16.4698 12.4698ZM16.5265 5.41809C16.8211 5.17778 17.2558 5.19524 17.5304 5.46984C17.805 5.74445 17.8225 6.17917 17.5821 6.47375L17.5304 6.53039L12.5304 11.5304C12.2558 11.805 11.8211 11.8225 11.5265 11.5821L11.4698 11.5304L6.46984 6.53039L6.41809 6.47375C6.17778 6.17917 6.19524 5.74445 6.46984 5.46984C6.74445 5.19524 7.17917 5.17778 7.47375 5.41809L7.53039 5.46984L12.0001 9.93957L16.4698 5.46984L16.5265 5.41809Z" fill="#212D34"/>
</svg>
