<svg width="24" height="24" viewBox="0 0 24 24" fill="none" xmlns="http://www.w3.org/2000/svg">
<path fill-rule="evenodd" clip-rule="evenodd" d="M21.25 12C21.25 6.89137 17.1086 2.75 12 2.75C6.89137 2.75 2.75 6.89137 2.75 12C2.75 17.1086 6.89137 21.25 12 21.25C17.1086 21.25 21.25 17.1086 21.25 12ZM22.75 12C22.75 17.9371 17.9371 22.75 12 22.75C6.06294 22.75 1.25 17.9371 1.25 12C1.25 6.06294 6.06294 1.25 12 1.25C17.9371 1.25 22.75 6.06294 22.75 12ZM10.0197 6.76213C10.7831 6.31344 11.6811 6.14957 12.5539 6.29924C13.4267 6.44896 14.2189 6.90299 14.7892 7.58049C15.3593 8.25779 15.6712 9.11514 15.6701 10.0004L15.6584 10.2572C15.5412 11.5149 14.5816 12.3774 13.8361 12.8744C13.4158 13.1546 13.0005 13.361 12.6935 13.4975C12.5389 13.5662 12.4086 13.6183 12.3156 13.6537C12.2693 13.6714 12.2321 13.6852 12.2052 13.6947C12.1919 13.6995 12.181 13.7037 12.173 13.7065C12.1711 13.7071 12.1692 13.7076 12.1674 13.708L12.1664 13.7083C12.1648 13.7087 12.1634 13.709 12.1623 13.7094L12.1593 13.7104L12.1584 13.7113H12.1574L12.0832 13.7319C11.7122 13.815 11.331 13.6051 11.2082 13.2367C11.0775 12.8439 11.29 12.4194 11.6828 12.2885H11.6818L11.7023 12.2817L11.706 12.2804L11.706 12.2804C11.7232 12.2742 11.7494 12.2649 11.7824 12.2524C11.8534 12.2253 11.9577 12.1835 12.0841 12.1274C12.3395 12.0139 12.6746 11.846 13.0041 11.6264C13.7086 11.1567 14.1699 10.6021 14.1701 10.0004V9.99846L14.1613 9.80022C14.1212 9.3404 13.941 8.90188 13.6418 8.54631C13.2996 8.13981 12.8237 7.86759 12.3 7.77776C11.7765 7.68807 11.2384 7.78701 10.7804 8.05608C10.3224 8.32526 9.97338 8.74731 9.79703 9.24846L9.76871 9.31975C9.60706 9.66395 9.20739 9.83634 8.84097 9.70744C8.45036 9.56994 8.24559 9.14206 8.38297 8.75139L8.50601 8.44377C8.82437 7.74332 9.35176 7.15468 10.0197 6.76213ZM12.1123 16.0049L12.0098 16H12C11.4477 16 11 16.4477 11 17C11 17.5523 11.4477 18 12 18H12.0098L12.1123 17.9951C12.6165 17.9439 13.0098 17.5178 13.0098 17C13.0098 16.4822 12.6165 16.0561 12.1123 16.0049Z" fill="#212D34"/>
</svg>
