<svg width="24" height="24" viewBox="0 0 24 24" fill="none" xmlns="http://www.w3.org/2000/svg">
<path d="M21.25 12C21.25 6.89137 17.1086 2.75 12 2.75C6.89137 2.75 2.75 6.89137 2.75 12C2.75 17.1086 6.89137 21.25 12 21.25C17.1086 21.25 21.25 17.1086 21.25 12ZM12.4697 7.46973C12.7626 7.17683 13.2374 7.17683 13.5303 7.46973C13.8232 7.76262 13.8232 8.23738 13.5303 8.53027L10.0605 12L13.5303 15.4697L13.582 15.5264C13.8223 15.8209 13.8049 16.2557 13.5303 16.5303C13.2557 16.8049 12.8209 16.8223 12.5264 16.582L12.4697 16.5303L8.46973 12.5303C8.17683 12.2374 8.17683 11.7626 8.46973 11.4697L12.4697 7.46973ZM22.75 12C22.75 17.9371 17.9371 22.75 12 22.75C6.06294 22.75 1.25 17.9371 1.25 12C1.25 6.06294 6.06294 1.25 12 1.25C17.9371 1.25 22.75 6.06294 22.75 12Z" fill="#212D34"/>
</svg>
