<svg width="24" height="24" viewBox="0 0 24 24" fill="none" xmlns="http://www.w3.org/2000/svg">
<path d="M21.25 12C21.25 6.89137 17.1086 2.75 12 2.75C6.89137 2.75 2.75 6.89137 2.75 12C2.75 17.1086 6.89137 21.25 12 21.25C17.1086 21.25 21.25 17.1086 21.25 12ZM14.4697 9.46973C14.7626 9.17683 15.2374 9.17683 15.5303 9.46973C15.8232 9.76262 15.8232 10.2374 15.5303 10.5303L11.5303 14.5303C11.2374 14.8232 10.7626 14.8232 10.4697 14.5303L8.46973 12.5303L8.41797 12.4736C8.17766 12.1791 8.19512 11.7443 8.46973 11.4697C8.74433 11.1951 9.17905 11.1777 9.47363 11.418L9.53027 11.4697L11 12.9395L14.4697 9.46973ZM22.75 12C22.75 17.9371 17.9371 22.75 12 22.75C6.06294 22.75 1.25 17.9371 1.25 12C1.25 6.06294 6.06294 1.25 12 1.25C17.9371 1.25 22.75 6.06294 22.75 12Z" fill="#212D34"/>
</svg>
