<svg width="24" height="24" viewBox="0 0 24 24" fill="none" xmlns="http://www.w3.org/2000/svg">
<path d="M9.63071 1.50879C11.7506 1.02984 13.9625 1.20463 15.9754 2.00586L16.3749 2.17481L16.4432 2.20996C16.7731 2.39895 16.9128 2.8103 16.7547 3.16504C16.5966 3.51991 16.197 3.69143 15.8358 3.57227L15.7645 3.54492L15.4208 3.39942C13.6888 2.71004 11.7857 2.55967 9.96177 2.97168C8.01615 3.41127 6.26459 4.46811 4.9686 5.98438C3.67261 7.50069 2.90161 9.39538 2.77036 11.3857C2.63917 13.376 3.15456 15.3551 4.24009 17.0283C5.32568 18.7016 6.92289 19.9796 8.7938 20.6709C10.6649 21.3622 12.7101 21.4298 14.6229 20.8643C16.5356 20.2987 18.2138 19.1297 19.4081 17.5322C20.6023 15.9348 21.2486 13.9945 21.2499 12V11.0801C21.2499 10.6659 21.5856 10.3301 21.9999 10.3301C22.4141 10.3301 22.7499 10.6659 22.7499 11.0801V12L22.7411 12.4346C22.6523 14.599 21.9113 16.6902 20.6102 18.4307C19.2222 20.2874 17.2707 21.6455 15.0477 22.3027C12.8247 22.96 10.4487 22.8815 8.27427 22.0781C6.0998 21.2748 4.24301 19.7894 2.9813 17.8447C1.71982 15.9002 1.12084 13.6 1.27329 11.2871C1.42582 8.97402 2.32187 6.77195 3.82798 5.00977C5.33411 3.2476 7.3696 2.01969 9.63071 1.50879ZM21.5262 3.41797C21.8208 3.1776 22.2555 3.1951 22.5301 3.46973C22.823 3.76263 22.823 4.2374 22.5301 4.53028L12.5301 14.5303C12.2372 14.8231 11.7625 14.8231 11.4696 14.5303L8.46958 11.5303L8.41782 11.4736C8.17747 11.1791 8.19502 10.7444 8.46958 10.4697C8.7442 10.1951 9.1789 10.1776 9.47349 10.418L9.53013 10.4697L11.9999 12.9395L21.4696 3.46973L21.5262 3.41797Z" fill="#212D34"/>
</svg>
