<svg width="24" height="24" viewBox="0 0 24 24" fill="none" xmlns="http://www.w3.org/2000/svg">
<path d="M21.25 12C21.25 6.89137 17.1086 2.75 12 2.75C6.89137 2.75 2.75 6.89137 2.75 12C2.75 17.1086 6.89137 21.25 12 21.25C17.1086 21.25 21.25 17.1086 21.25 12ZM11.5264 8.41797C11.8209 8.17766 12.2557 8.19512 12.5303 8.46973L16.5303 12.4697L16.582 12.5264C16.8223 12.8209 16.8049 13.2557 16.5303 13.5303C16.2557 13.8049 15.8209 13.8223 15.5264 13.582L15.4697 13.5303L12 10.0605L8.53027 13.5303C8.23738 13.8232 7.76262 13.8232 7.46973 13.5303C7.17683 13.2374 7.17683 12.7626 7.46973 12.4697L11.4697 8.46973L11.5264 8.41797ZM22.75 12C22.75 17.9371 17.9371 22.75 12 22.75C6.06294 22.75 1.25 17.9371 1.25 12C1.25 6.06294 6.06294 1.25 12 1.25C17.9371 1.25 22.75 6.06294 22.75 12Z" fill="#212D34"/>
</svg>
