<svg width="24" height="24" viewBox="0 0 24 24" fill="none" xmlns="http://www.w3.org/2000/svg">
<path fill-rule="evenodd" clip-rule="evenodd" d="M12 2.75C17.1086 2.75 21.25 6.89137 21.25 12C21.25 17.1086 17.1086 21.25 12 21.25C6.89137 21.25 2.75 17.1086 2.75 12C2.75 6.89137 6.89137 2.75 12 2.75ZM12 22.75C17.9371 22.75 22.75 17.9371 22.75 12C22.75 6.06294 17.9371 1.25 12 1.25C6.06294 1.25 1.25 6.06294 1.25 12C1.25 17.9371 6.06294 22.75 12 22.75ZM11.25 12.25V15.25H10.5C10.0858 15.25 9.75 15.5858 9.75 16C9.75 16.4142 10.0858 16.75 10.5 16.75H12H13.5C13.9142 16.75 14.25 16.4142 14.25 16C14.25 15.5858 13.9142 15.25 13.5 15.25H12.75V11.5C12.75 11.1118 12.4551 10.7925 12.0771 10.7539L12 10.75H10.5C10.0858 10.75 9.75 11.0858 9.75 11.5C9.75 11.9142 10.0858 12.25 10.5 12.25H11.25ZM12.1123 7.00488L12.0098 7H12C11.4477 7 11 7.44772 11 8C11 8.55228 11.4477 9 12 9H12.0098L12.1123 8.99512C12.6165 8.94389 13.0098 8.51776 13.0098 8C13.0098 7.48224 12.6165 7.05611 12.1123 7.00488Z" fill="#212D34"/>
</svg>
