<svg width="24" height="24" viewBox="0 0 24 24" fill="none" xmlns="http://www.w3.org/2000/svg">
<path fill-rule="evenodd" clip-rule="evenodd" d="M11.25 6L11.25 14C11.25 14.4142 11.5858 14.75 12 14.75C12.4142 14.75 12.75 14.4142 12.75 14L12.75 6C12.75 5.58579 12.4142 5.25 12 5.25C11.5858 5.25 11.25 5.58579 11.25 6ZM12.1123 17.0049L12.0098 17H12C11.4477 17 11 17.4477 11 18C11 18.5523 11.4477 19 12 19H12.0098L12.1123 18.9951C12.6165 18.9439 13.0098 18.5178 13.0098 18C13.0098 17.4822 12.6165 17.0561 12.1123 17.0049Z" fill="#212D34"/>
</svg>
