<svg width="24" height="24" viewBox="0 0 24 24" fill="none" xmlns="http://www.w3.org/2000/svg">
<path d="M8.46973 14.4697C8.76262 14.1768 9.23738 14.1768 9.53027 14.4697C9.82317 14.7626 9.82317 15.2374 9.53027 15.5303L4.81055 20.25H7.7998L7.87695 20.2539C8.25502 20.2924 8.5498 20.6118 8.5498 21C8.5498 21.3882 8.25502 21.7076 7.87695 21.7461L7.7998 21.75H3C2.58579 21.75 2.25 21.4142 2.25 21V16.2002C2.25 15.786 2.58579 15.4502 3 15.4502C3.38823 15.4502 3.70756 15.745 3.74609 16.123L3.75 16.2002V19.1895L8.46973 14.4697ZM14.4697 14.4697C14.7443 14.1951 15.1791 14.1777 15.4736 14.418L15.5303 14.4697L20.25 19.1895V16.2002C20.25 15.786 20.5858 15.4502 21 15.4502C21.4142 15.4502 21.75 15.786 21.75 16.2002V21C21.75 21.4142 21.4142 21.75 21 21.75H16.2002C15.786 21.75 15.4502 21.4142 15.4502 21C15.4502 20.5858 15.786 20.25 16.2002 20.25H19.1895L14.4697 15.5303L14.418 15.4736C14.1777 15.1791 14.1951 14.7443 14.4697 14.4697ZM2.25 7.7998V3C2.25 2.58579 2.58579 2.25 3 2.25H7.7998L7.87695 2.25391C8.25502 2.29244 8.5498 2.61177 8.5498 3C8.5498 3.38823 8.25502 3.70756 7.87695 3.74609L7.7998 3.75H4.81055L9.53027 8.46973L9.58203 8.52637C9.82234 8.82095 9.80488 9.25567 9.53027 9.53027C9.25567 9.80488 8.82095 9.82234 8.52637 9.58203L8.46973 9.53027L3.75 4.81055V7.7998L3.74609 7.87695C3.70756 8.25502 3.38823 8.5498 3 8.5498C2.61177 8.5498 2.29244 8.25502 2.25391 7.87695L2.25 7.7998ZM21.75 7.7998C21.75 8.21402 21.4142 8.5498 21 8.5498C20.5858 8.5498 20.25 8.21402 20.25 7.7998V4.81055L15.5303 9.53027C15.2374 9.82317 14.7626 9.82317 14.4697 9.53027C14.1768 9.23738 14.1768 8.76262 14.4697 8.46973L19.1895 3.75H16.2002C15.786 3.75 15.4502 3.41421 15.4502 3C15.4502 2.58579 15.786 2.25 16.2002 2.25H21L21.0771 2.25391C21.4551 2.29253 21.75 2.61183 21.75 3V7.7998Z" fill="#212D34"/>
</svg>
