<svg width="24" height="24" viewBox="0 0 24 24" fill="none" xmlns="http://www.w3.org/2000/svg">
<path d="M1.46925 1.46967C1.76214 1.17678 2.23788 1.17678 2.53077 1.46967L22.5308 21.4697L22.5816 21.5263C22.822 21.8208 22.8052 22.2555 22.5308 22.5302C22.2563 22.8047 21.8214 22.822 21.5269 22.582L21.4692 22.5302L17.3608 18.4218C16.0739 19.1001 14.6692 19.5309 13.2192 19.6855C11.5792 19.8603 9.92031 19.6798 8.35597 19.1572C6.79179 18.6346 5.35837 17.7816 4.15284 16.6562C3.02262 15.601 2.11753 14.3291 1.49073 12.9179L1.36866 12.6337L1.3589 12.6093C1.21305 12.2164 1.21305 11.7835 1.3589 11.3906L1.36866 11.3662C2.19538 9.36132 3.56928 7.63704 5.32472 6.38569L1.46925 2.53022C1.17669 2.23739 1.17669 1.7625 1.46925 1.46967ZM6.40382 7.46479C4.78402 8.55887 3.51534 10.1049 2.76319 11.9179C2.74496 11.9704 2.74536 12.0274 2.76319 12.08C3.30998 13.3987 4.1327 14.5852 5.17628 15.5595C6.22461 16.5382 7.47132 17.2798 8.83155 17.7343C10.1918 18.1888 11.634 18.3453 13.0601 18.1933C14.1651 18.0755 15.2394 17.7723 16.2417 17.3027L14.0669 15.1279C13.4486 15.5365 12.7187 15.7565 11.9673 15.7499C10.9841 15.7414 10.0434 15.3466 9.34815 14.6513C8.65315 13.9562 8.25917 13.0161 8.2505 12.0331C8.24397 11.2817 8.46293 10.5509 8.87159 9.93256L6.40382 7.46479ZM11.1118 4.2851C13.45 4.10294 15.7926 4.64028 17.8218 5.831C19.8509 7.02172 21.4625 8.8045 22.4439 10.9345L22.6314 11.3652L22.6411 11.3896L22.689 11.539C22.771 11.8401 22.771 12.1578 22.689 12.4589L22.6411 12.6083C22.6381 12.6166 22.6347 12.6247 22.6314 12.6328C22.2382 13.5859 21.7185 14.4822 21.0864 15.2968L21.0366 15.3544C20.7746 15.6299 20.3416 15.6675 20.0347 15.4296C19.7074 15.1757 19.648 14.7042 19.9019 14.3769L20.103 14.1083C20.5587 13.4784 20.9388 12.7969 21.2368 12.0781C21.2548 12.0243 21.2544 11.9664 21.2349 11.913C20.4018 9.90595 18.9367 8.22498 17.062 7.12494C15.1801 6.02068 12.9885 5.56206 10.8218 5.82026L10.7456 5.82612C10.3655 5.83295 10.0349 5.55055 9.98878 5.16498C9.93977 4.75374 10.2329 4.38011 10.6441 4.331L11.1118 4.2851ZM9.9712 11.0322C9.82535 11.3379 9.74655 11.6745 9.74952 12.0195C9.75465 12.6093 9.99169 13.1736 10.4087 13.5908C10.8258 14.0078 11.3902 14.2447 11.98 14.2499C12.3249 14.2529 12.6616 14.1741 12.9673 14.0283L9.9712 11.0322Z" fill="#212D34"/>
</svg>
