<svg width="24" height="24" viewBox="0 0 24 24" fill="none" xmlns="http://www.w3.org/2000/svg">
<path fill-rule="evenodd" clip-rule="evenodd" d="M18.3194 11.2783C18.3466 11.5149 18.3604 11.7557 18.3604 12C18.3604 12.2443 18.3466 12.4851 18.3194 12.7217L18.2881 12.9561C18.2093 13.4698 18.3332 14.0375 18.7208 14.4688L19.8057 15.6758C19.8779 15.7563 19.8902 15.8741 19.836 15.9678L19.2618 16.96C19.2063 17.0554 19.0947 17.1028 18.9874 17.0771L17.3585 16.6875C16.8017 16.5544 16.2501 16.7108 15.8379 17.0176C15.4236 17.3259 14.9701 17.5842 14.4864 17.7832C14.0611 17.9581 13.6817 18.2905 13.4825 18.748L13.4083 18.9512L12.9307 20.5703C12.8994 20.6765 12.8021 20.7498 12.6915 20.75H11.5303C11.4196 20.7499 11.3224 20.6766 11.2911 20.5703L10.8126 18.9512C10.6672 18.4588 10.3235 18.0863 9.91412 17.8672L9.73541 17.7832C9.37242 17.6339 9.02642 17.4514 8.70123 17.2393L8.38287 17.0176C8.02208 16.7491 7.55476 16.596 7.07037 16.6514L6.86236 16.6885L5.03912 17.124C4.95839 17.1433 4.87527 17.1212 4.81548 17.0684L4.7647 17.0059L4.25006 16.1182C4.19578 16.0244 4.20889 15.9058 4.28131 15.8252L5.50006 14.4688L5.63287 14.3018C5.91545 13.8972 6.00162 13.4067 5.93267 12.957C5.88487 12.6455 5.86041 12.3258 5.86041 12C5.86041 11.6742 5.88487 11.3545 5.93267 11.043L5.95318 10.8486C5.97693 10.39 5.83914 9.90866 5.50006 9.53125L4.28131 8.1748C4.20889 8.09423 4.19578 7.97559 4.25006 7.88184L4.7647 6.99414L4.81548 6.93164C4.87527 6.87884 4.95839 6.85672 5.03912 6.87598L6.86236 7.31152L7.07037 7.34863C7.55476 7.40398 8.02208 7.25095 8.38287 6.98242C8.79743 6.67388 9.25139 6.41582 9.73541 6.2168C10.2213 6.01702 10.6465 5.61134 10.8126 5.04883L11.2911 3.42969L11.3262 3.35645C11.3721 3.29122 11.4473 3.25005 11.5303 3.25H12.6915C12.8021 3.25019 12.8994 3.32353 12.9307 3.42969L13.4083 5.04883L13.4825 5.25195C13.6817 5.7095 14.0611 6.04188 14.4864 6.2168C14.9701 6.41576 15.4236 6.67405 15.8379 6.98242L15.9991 7.09082C16.3883 7.32418 16.8714 7.42889 17.3585 7.3125L18.9874 6.92285C19.0947 6.89718 19.2063 6.94463 19.2618 7.04004L19.836 8.03223L19.8643 8.10645C19.8749 8.15728 19.8695 8.21025 19.8487 8.25781L19.8057 8.32422L18.7208 9.53125C18.3332 9.96252 18.2093 10.5302 18.2881 11.0439L18.3194 11.2783ZM19.8096 12.8926C19.8433 12.5995 19.8604 12.3016 19.8604 12C19.8604 11.6984 19.8433 11.4005 19.8096 11.1074L19.7706 10.8164C19.7505 10.6858 19.7889 10.5877 19.837 10.5342L20.921 9.32715L21.0118 9.21875C21.4091 8.69798 21.482 7.99665 21.2003 7.40527L21.1338 7.28027L20.5596 6.28906C20.172 5.61955 19.3912 5.284 18.6387 5.46387L17.0098 5.85352C16.9579 5.86593 16.8868 5.86182 16.8106 5.82617L16.7335 5.7793C16.2201 5.39722 15.6574 5.07717 15.0567 4.83008C14.9638 4.79185 14.9038 4.73439 14.8711 4.67871L14.8477 4.62402L14.3692 3.00488C14.1497 2.26099 13.467 1.75019 12.6915 1.75H11.5303C10.8031 1.75006 10.1572 2.19897 9.89849 2.86816L9.85162 3.00488L9.37408 4.62402C9.35352 4.69371 9.28879 4.77816 9.16509 4.8291C8.56403 5.07625 8.00097 5.39703 7.48736 5.7793C7.40907 5.83755 7.33165 5.85921 7.26861 5.85938L7.21099 5.85352L5.38775 5.41699C4.68234 5.24847 3.95192 5.53315 3.544 6.12109L3.46685 6.24219L2.9522 7.13086C2.57252 7.78696 2.65852 8.61284 3.16509 9.17676L4.38482 10.5332C4.42082 10.5733 4.45054 10.6387 4.45513 10.7236L4.45025 10.8154C4.39094 11.2019 4.36041 11.5978 4.36041 12C4.36041 12.4022 4.39094 12.7981 4.45025 13.1846C4.46518 13.2822 4.44799 13.3617 4.41802 13.418L4.38482 13.4668L3.16509 14.8232C2.65852 15.3872 2.57252 16.213 2.9522 16.8691L3.46685 17.7578L3.544 17.8789C3.95192 18.4668 4.68234 18.7515 5.38775 18.583L7.21099 18.1465L7.26861 18.1406C7.33165 18.1408 7.40907 18.1624 7.48736 18.2207L7.88189 18.4951C8.28508 18.7581 8.71426 18.9855 9.16509 19.1709L9.24713 19.2139C9.31861 19.2625 9.35864 19.3237 9.37408 19.376L9.85162 20.9951C10.0711 21.7391 10.7546 22.2499 11.5303 22.25H12.6915C13.467 22.2498 14.1497 21.739 14.3692 20.9951L14.8477 19.376L14.8711 19.3213C14.9038 19.2656 14.9637 19.2081 15.0567 19.1699C15.6574 18.9228 16.2201 18.6028 16.7335 18.2207C16.8376 18.1432 16.9406 18.1299 17.0098 18.1465L18.6387 18.5361C19.3912 18.716 20.172 18.3804 20.5596 17.7109L21.1338 16.7197C21.5138 16.0634 21.4279 15.2369 20.921 14.6729L19.837 13.4658C19.7889 13.4123 19.7505 13.3142 19.7706 13.1836L19.8096 12.8926ZM11.9999 9.75C13.2426 9.75 14.2499 10.7574 14.2499 12C14.2499 13.2426 13.2426 14.25 11.9999 14.25C10.7573 14.25 9.74993 13.2426 9.74993 12C9.74993 10.7574 10.7573 9.75 11.9999 9.75ZM11.9999 15.75C14.071 15.75 15.7499 14.0711 15.7499 12C15.7499 9.92893 14.071 8.25 11.9999 8.25C9.92887 8.25 8.24993 9.92893 8.24993 12C8.24993 14.0711 9.92887 15.75 11.9999 15.75Z" fill="#212D34"/>
</svg>
