<svg width="24" height="24" viewBox="0 0 24 24" fill="none" xmlns="http://www.w3.org/2000/svg">
<path fill-rule="evenodd" clip-rule="evenodd" d="M5 10.75C5.9665 10.75 6.75 9.9665 6.75 9C6.75 8.0335 5.9665 7.25 5 7.25C4.0335 7.25 3.25 8.0335 3.25 9C3.25 9.9665 4.0335 10.75 5 10.75ZM12 10.75C12.9665 10.75 13.75 9.9665 13.75 9C13.75 8.0335 12.9665 7.25 12 7.25C11.0335 7.25 10.25 8.0335 10.25 9C10.25 9.9665 11.0335 10.75 12 10.75ZM19 10.75C19.9665 10.75 20.75 9.9665 20.75 9C20.75 8.0335 19.9665 7.25 19 7.25C18.0335 7.25 17.25 8.0335 17.25 9C17.25 9.9665 18.0335 10.75 19 10.75ZM5 16.75C5.9665 16.75 6.75 15.9665 6.75 15C6.75 14.0335 5.9665 13.25 5 13.25C4.0335 13.25 3.25 14.0335 3.25 15C3.25 15.9665 4.0335 16.75 5 16.75ZM12 16.75C12.9665 16.75 13.75 15.9665 13.75 15C13.75 14.0335 12.9665 13.25 12 13.25C11.0335 13.25 10.25 14.0335 10.25 15C10.25 15.9665 11.0335 16.75 12 16.75ZM19 16.75C19.9665 16.75 20.75 15.9665 20.75 15C20.75 14.0335 19.9665 13.25 19 13.25C18.0335 13.25 17.25 14.0335 17.25 15C17.25 15.9665 18.0335 16.75 19 16.75Z" fill="#212D34"/>
</svg>
