<svg width="24" height="24" viewBox="0 0 24 24" fill="none" xmlns="http://www.w3.org/2000/svg">
<path fill-rule="evenodd" clip-rule="evenodd" d="M12.1123 5.00488L12.0098 5H12C11.4477 5 11 5.44772 11 6C11 6.55228 11.4477 7 12 7H12.0098L12.1123 6.99512C12.6165 6.94389 13.0098 6.51776 13.0098 6C13.0098 5.48224 12.6165 5.05611 12.1123 5.00488ZM10 18.75H12H14C14.4142 18.75 14.75 18.4142 14.75 18C14.75 17.5858 14.4142 17.25 14 17.25H12.75L12.75 10C12.75 9.61183 12.4551 9.29253 12.0771 9.25391L12 9.25H10C9.58579 9.25 9.25 9.58579 9.25 10C9.25 10.4142 9.58579 10.75 10 10.75H11.25L11.25 17.25H10C9.58579 17.25 9.25 17.5858 9.25 18C9.25 18.4142 9.58579 18.75 10 18.75Z" fill="#212D34"/>
</svg>
