<svg width="24" height="24" viewBox="0 0 24 24" fill="none" xmlns="http://www.w3.org/2000/svg">
<path fill-rule="evenodd" clip-rule="evenodd" d="M20.5304 3.46937C18.3804 1.31956 14.9889 1.17734 12.6886 3.26136L12.4698 3.46937L10.9698 4.96937C10.677 5.2622 10.6771 5.73701 10.9698 6.02991C11.2627 6.32281 11.7375 6.32281 12.0304 6.02991L13.5304 4.52991L13.6925 4.37562C15.392 2.83468 17.8746 2.93484 19.4698 4.52991L19.6193 4.68714C21.0698 6.28463 21.1155 8.66241 19.6241 10.3073L19.4698 10.4694L16.9698 12.9694C15.316 14.6232 12.8943 14.6753 11.1925 13.1246L11.0304 12.9694L10.5304 12.4694L10.4737 12.4186C10.1792 12.1781 9.74454 12.1949 9.46984 12.4694C9.19531 12.7439 9.17797 13.1787 9.41808 13.4733L9.46984 13.5299L9.96984 14.0299L10.1886 14.2389C12.4791 16.3209 15.8093 16.251 18.0304 14.0299L20.5304 11.5299L20.7394 11.3112C22.7558 9.08492 22.6874 5.8369 20.7325 3.68128L20.5304 3.46937ZM14.03 9.96976C11.8087 7.74867 8.47874 7.67931 6.18822 9.76175L5.96947 9.96976L3.46947 12.4698C1.17022 14.7692 1.25051 18.3111 3.46947 20.5303L3.68139 20.7325C5.90885 22.7525 9.30241 22.7578 11.53 20.5303L13.03 19.0303C13.3229 18.7374 13.3229 18.2627 13.03 17.9698C12.7371 17.6771 12.2623 17.6769 11.9695 17.9698L10.4695 19.4698C8.82209 21.117 6.338 21.1181 4.68725 19.6192L4.53002 19.4698C2.88349 17.823 2.82982 15.2307 4.53002 13.5303L7.03002 11.0303L7.19311 10.875C8.89477 9.32497 11.3158 9.37683 12.9695 11.0303L13.4695 11.5303L13.5271 11.5821C13.8216 11.822 14.2555 11.8046 14.53 11.5303C14.8047 11.2556 14.8222 10.821 14.5818 10.5264L14.53 10.4698L14.03 9.96976Z" fill="#212D34"/>
</svg>
