<svg width="24" height="24" viewBox="0 0 24 24" fill="none" xmlns="http://www.w3.org/2000/svg">
<path d="M1.46973 1.46979C1.76262 1.17689 2.23738 1.17689 2.53027 1.46979L22.5303 21.4698L22.582 21.5264C22.8223 21.821 22.8049 22.2557 22.5303 22.5303C22.2557 22.8049 21.8209 22.8224 21.5264 22.5821L21.4697 22.5303L11.6895 12.7501H8C7.58581 12.7501 7.25003 12.4142 7.25 12.0001C7.25 11.5858 7.58579 11.2501 8 11.2501H10.1895L6.7002 7.7608C5.68259 7.83273 4.72118 8.26912 3.99512 8.99518C3.19811 9.7922 2.75 10.8729 2.75 12.0001C2.75002 13.1272 3.1981 14.2079 3.99512 15.0049C4.79214 15.802 5.87284 16.2501 7 16.2501H9C9.41421 16.2501 9.75 16.5858 9.75 17.0001C9.74997 17.4142 9.41419 17.7501 9 17.7501H7C5.47502 17.7501 4.0129 17.1438 2.93457 16.0655C1.85625 14.9872 1.25002 13.525 1.25 12.0001C1.25 10.4751 1.85625 9.01296 2.93457 7.93463C3.63003 7.23917 4.4853 6.74128 5.41406 6.47467L1.46973 2.53033C1.17684 2.23745 1.17686 1.76268 1.46973 1.46979ZM17 6.25006C18.0678 6.25006 19.1151 6.54706 20.0234 7.10846C20.9317 7.66985 21.6651 8.47374 22.1426 9.42877C22.6201 10.3839 22.8225 11.4531 22.7266 12.5167C22.6306 13.5801 22.2403 14.5961 21.5996 15.4503C21.351 15.7813 20.8811 15.8481 20.5498 15.5997C20.2187 15.3511 20.152 14.8811 20.4004 14.5499C20.8738 13.9186 21.1615 13.1678 21.2324 12.3819C21.3033 11.596 21.1546 10.8055 20.8018 10.0997C20.4488 9.39374 19.9057 8.79977 19.2344 8.38483C18.563 7.96988 17.7893 7.75006 17 7.75006H15C14.5858 7.75006 14.25 7.41425 14.25 7.00006C14.25 6.58585 14.5858 6.25006 15 6.25006H17Z" fill="#212D34"/>
</svg>
