<svg width="24" height="24" viewBox="0 0 24 24" fill="none" xmlns="http://www.w3.org/2000/svg">
<path d="M20 3.25C21.5188 3.25 22.75 4.48122 22.75 6V18C22.75 19.5188 21.5188 20.75 20 20.75H4C2.48122 20.75 1.25 19.5188 1.25 18V6C1.25 4.48122 2.48122 3.25 4 3.25H20ZM13.4326 13.333L13.4277 13.3359C13.0532 13.5705 12.6274 13.7084 12.1885 13.7393L12 13.7461C11.495 13.7461 11.0002 13.6039 10.5723 13.3359L10.5674 13.333L2.75 8.36426V18C2.75 18.6904 3.30964 19.25 4 19.25H20C20.6904 19.25 21.25 18.6904 21.25 18V8.36426L13.4326 13.333ZM4 4.75C3.30964 4.75 2.75 5.30964 2.75 6V6.58789L11.3672 12.0645H11.3682C11.5575 12.1831 11.7765 12.2461 12 12.2461L12.166 12.2344C12.2759 12.2189 12.383 12.1878 12.4844 12.1426L12.6318 12.0645L21.25 6.58789V6C21.25 5.30964 20.6904 4.75 20 4.75H4Z" fill="#212D34"/>
</svg>
