<svg width="24" height="24" viewBox="0 0 24 24" fill="none" xmlns="http://www.w3.org/2000/svg">
<path d="M15.7313 1.4387C16.9996 1.51331 18.1671 2.10695 19.0301 2.96995C19.8931 3.83295 20.4867 5.0004 20.5613 6.26878C20.6322 7.47503 20.23 8.72032 19.2371 9.8137L19.0301 10.0305L10.5301 18.5305C9.88622 19.1743 9.11761 19.449 8.36212 19.4045C7.62503 19.3611 6.95751 19.0185 6.46954 18.5305C5.98157 18.0425 5.63891 17.375 5.59551 16.6379C5.55107 15.8824 5.82577 15.1138 6.46954 14.47L14.9695 5.96995C15.2624 5.67706 15.7372 5.67706 16.0301 5.96995C16.323 6.26285 16.323 6.73761 16.0301 7.0305L7.53008 15.5305C7.17415 15.8865 7.07453 16.2432 7.09258 16.55C7.11181 16.8753 7.26816 17.208 7.53008 17.47C7.79201 17.7319 8.12474 17.8882 8.45001 17.9075C8.75688 17.9255 9.11351 17.8259 9.46954 17.47L17.9695 8.96995L18.1238 8.80882C18.8606 7.99943 19.1105 7.14245 19.0643 6.35667C19.0139 5.50006 18.6065 4.6675 17.9695 4.0305C17.3325 3.3935 16.5 2.98616 15.6434 2.93577C14.8576 2.88958 14.0006 3.13941 13.1912 3.8762L13.0301 4.0305L4.53008 12.5305C3.17414 13.8865 2.69953 15.3682 2.78008 16.7375C2.86181 18.1253 3.51815 19.458 4.53008 20.47C5.54202 21.4819 6.87475 22.1382 8.26251 22.22C9.63187 22.3005 11.1135 21.8259 12.4695 20.47L21.9695 10.97C22.2624 10.6771 22.7372 10.6771 23.0301 10.97C23.323 11.2628 23.323 11.7376 23.0301 12.0305L13.5301 21.5305C11.8862 23.1743 9.99261 23.824 8.17462 23.717C6.37503 23.6111 4.70751 22.7685 3.46954 21.5305C2.23157 20.2925 1.38891 18.625 1.28301 16.8254C1.17607 15.0074 1.82577 13.1138 3.46954 11.47L11.9695 2.96995L12.1863 2.76292C13.2797 1.76999 14.525 1.36782 15.7313 1.4387Z" fill="#212D34"/>
</svg>
