<svg width="24" height="24" viewBox="0 0 24 24" fill="none" xmlns="http://www.w3.org/2000/svg">
<path d="M19.1818 1.25C20.1282 1.2502 21.0361 1.62659 21.7052 2.2959C22.3741 2.96523 22.7502 3.87303 22.7501 4.81934C22.7499 5.70665 22.4192 6.56031 21.8263 7.21484L21.7042 7.34277L19.6036 9.44238C19.5814 9.47268 19.5578 9.50287 19.5304 9.53027C19.5024 9.55825 19.4716 9.58284 19.4406 9.60547L8.35754 20.6914L8.35657 20.6924C8.07772 20.9703 7.74284 21.1853 7.37512 21.3223L7.21497 21.376L2.86145 22.6963H2.8595C2.64358 22.7611 2.41407 22.7668 2.19543 22.7119C1.97669 22.6569 1.77697 22.5431 1.61731 22.3838C1.45779 22.2245 1.34364 22.0251 1.28821 21.8066C1.23287 21.588 1.23834 21.3577 1.30286 21.1416L1.30383 21.1387L2.62415 16.7861L2.62512 16.7842C2.75726 16.3534 2.99359 15.9617 3.31262 15.6436L14.3956 4.55566C14.4177 4.52576 14.4428 4.49681 14.4698 4.46973C14.4965 4.44305 14.5254 4.41927 14.5548 4.39746L16.6573 2.29492C17.3267 1.62571 18.2352 1.24988 19.1818 1.25ZM4.37219 16.7051H4.37122C4.22674 16.8492 4.11889 17.0267 4.05872 17.2217L4.05969 17.2227L2.87415 21.124L6.77844 19.9404C6.97409 19.8809 7.15311 19.7742 7.29797 19.6299L17.9327 8.99316L15.007 6.06738L4.37219 16.7051ZM19.1818 2.75C18.6333 2.74993 18.1069 2.9678 17.7189 3.35547L16.0675 5.00684L18.9933 7.93262L20.6437 6.28223C21.0316 5.89442 21.2499 5.36783 21.2501 4.81934C21.2502 4.27073 21.0315 3.74447 20.6437 3.35645C20.2559 2.96858 19.7302 2.7502 19.1818 2.75Z" fill="#212D34"/>
</svg>
