<svg width="24" height="24" viewBox="0 0 24 24" fill="none" xmlns="http://www.w3.org/2000/svg">
<path d="M1.46973 1.46973C1.76262 1.17686 2.23739 1.17684 2.53027 1.46973L22.5303 21.4697L22.582 21.5264C22.8223 21.8209 22.8048 22.2557 22.5303 22.5303C22.2557 22.8049 21.8209 22.8223 21.5264 22.582L21.4697 22.5303L16.6895 17.75H12.75V22C12.75 22.4142 12.4142 22.75 12 22.75C11.5858 22.75 11.25 22.4142 11.25 22V17.75H6C5.53589 17.75 5.09088 17.5655 4.7627 17.2373C4.43451 16.9091 4.25 16.4641 4.25 16V15.2393C4.25034 14.7278 4.39354 14.2267 4.66309 13.792C4.93181 13.3587 5.31534 13.008 5.77148 12.7803L7.55176 11.8809L7.55664 11.8779C7.76463 11.7745 7.94005 11.6154 8.0625 11.418C8.18502 11.2204 8.24985 10.9923 8.25 10.7598V9.31055L1.46973 2.53027C1.17683 2.23738 1.17683 1.76262 1.46973 1.46973ZM9.74805 10.8086C9.73911 11.3034 9.59803 11.7869 9.33691 12.208C9.06812 12.6415 8.68385 12.991 8.22754 13.2188L6.44824 14.1191L6.44336 14.1221C6.23536 14.2255 6.05996 14.3846 5.9375 14.582C5.81497 14.7796 5.75015 15.0077 5.75 15.2402V16C5.75 16.0663 5.77636 16.1299 5.82324 16.1768C5.87012 16.2236 5.93371 16.25 6 16.25H15.1895L9.74805 10.8086ZM16 1.25C16.7293 1.25002 17.4286 1.53995 17.9443 2.05566C18.46 2.57139 18.75 3.27067 18.75 4C18.75 4.72933 18.46 5.42861 17.9443 5.94434C17.4286 6.46005 16.7293 6.74998 16 6.75C15.9337 6.75 15.8701 6.77638 15.8232 6.82324C15.7764 6.87013 15.75 6.9337 15.75 7V9.33984C15.75 9.75404 15.4142 10.0898 15 10.0898C14.5858 10.0898 14.25 9.75406 14.25 9.33984V7C14.25 6.53587 14.4345 6.09088 14.7627 5.7627C15.0909 5.43452 15.5359 5.25 16 5.25C16.3315 5.24998 16.6494 5.1182 16.8838 4.88379C17.1182 4.64937 17.25 4.33151 17.25 4C17.25 3.66849 17.1182 3.35063 16.8838 3.11621C16.6494 2.8818 16.3315 2.75002 16 2.75H7.88965C7.4756 2.74981 7.13965 2.4141 7.13965 2C7.13965 1.5859 7.4756 1.25019 7.88965 1.25H16Z" fill="#212D34"/>
</svg>
