<svg width="24" height="24" viewBox="0 0 24 24" fill="none" xmlns="http://www.w3.org/2000/svg">
<path fill-rule="evenodd" clip-rule="evenodd" d="M11.2501 13.9472V14L11.254 14.0771C11.2926 14.4551 11.6119 14.75 12.0001 14.75C12.3882 14.7499 12.7076 14.4551 12.7462 14.0771L12.7501 14V13.9472C12.7502 13.6403 12.8813 13.3288 13.1554 13.0029C13.4327 12.6734 13.8224 12.3717 14.2443 12.1094C14.9178 11.6905 15.4608 11.0912 15.8116 10.3799C16.1625 9.66843 16.3074 8.87242 16.2296 8.08299C16.1518 7.29389 15.8548 6.5422 15.3722 5.91307C14.8893 5.28378 14.2395 4.80187 13.4972 4.52245C12.7548 4.24303 11.949 4.17728 11.171 4.33202C10.393 4.48677 9.67381 4.85616 9.09484 5.39842C8.51594 5.94066 8.09994 6.63421 7.89465 7.40037C7.78772 7.80027 8.02511 8.21106 8.42492 8.31834C8.82502 8.42555 9.23666 8.18817 9.34387 7.78807C9.47672 7.2924 9.7457 6.84396 10.1202 6.49315C10.4949 6.14228 10.9606 5.90285 11.464 5.80272C11.9672 5.70271 12.4886 5.74502 12.9689 5.92577C13.4492 6.10657 13.8693 6.41895 14.1818 6.82616C14.4941 7.23332 14.6861 7.71973 14.7364 8.23045C14.7867 8.74118 14.6929 9.25551 14.4659 9.7158C14.239 10.1761 13.888 10.5639 13.4523 10.8349C12.961 11.1404 12.4264 11.5398 12.0079 12.0371C11.5867 12.5378 11.2502 13.1793 11.2501 13.9472ZM9.34387 7.78807L8.61926 7.59373L7.89465 7.40037L9.34387 7.78807ZM12.1123 17.0049L12.0098 17H12C11.4477 17 11 17.4477 11 18C11 18.5523 11.4477 19 12 19H12.0098L12.1123 18.9951C12.6165 18.9439 13.0098 18.5177 13.0098 18C13.0098 17.4822 12.6165 17.0561 12.1123 17.0049Z" fill="#212D34"/>
</svg>
