<svg width="24" height="24" viewBox="0 0 24 24" fill="none" xmlns="http://www.w3.org/2000/svg">
<path d="M11.9999 2.25C14.5494 2.25 16.9893 3.19851 18.8876 4.8584L19.2597 5.19922L20.2499 6.18945V3C20.2499 2.58579 20.5857 2.25 20.9999 2.25C21.4141 2.25 21.7499 2.58579 21.7499 3V8C21.7499 8.41421 21.4141 8.75 20.9999 8.75H15.9999C15.5857 8.75 15.2499 8.41421 15.2499 8C15.2499 7.58579 15.5857 7.25 15.9999 7.25H19.1893L18.2098 6.27051V6.26953C16.5368 4.66642 14.3155 3.75 11.9999 3.75C10.3683 3.75 8.77354 4.23419 7.41688 5.14062C6.06019 6.04714 5.00224 7.33531 4.37781 8.84277C3.75341 10.3502 3.58981 12.0091 3.90809 13.6094C4.22642 15.2097 5.01212 16.6802 6.1659 17.834C7.31968 18.9878 8.79017 19.7735 10.3905 20.0918C11.9908 20.4101 13.6497 20.2465 15.1571 19.6221C16.6646 18.9976 17.9527 17.9397 18.8593 16.583C19.7657 15.2263 20.2499 13.6316 20.2499 12C20.2499 11.5858 20.5857 11.25 20.9999 11.25C21.4141 11.25 21.7499 11.5858 21.7499 12C21.7499 13.9284 21.1777 15.8136 20.1063 17.417C19.035 19.0202 17.5127 20.2699 15.7313 21.0078C13.9498 21.7458 11.9889 21.9387 10.0975 21.5625C8.20632 21.1863 6.46886 20.258 5.10535 18.8945C3.74185 17.531 2.81362 15.7936 2.43739 13.9023C2.06118 12.011 2.25412 10.0501 2.99207 8.26855C3.72999 6.48719 4.97973 4.96484 6.58289 3.89355C8.18627 2.82221 10.0715 2.25 11.9999 2.25Z" fill="#212D34"/>
</svg>
