<svg width="24" height="24" viewBox="0 0 24 24" fill="none" xmlns="http://www.w3.org/2000/svg">
<path fill-rule="evenodd" clip-rule="evenodd" d="M19 3.75C19.6904 3.75 20.25 4.30964 20.25 5V19C20.25 19.6904 19.6904 20.25 19 20.25H5C4.30964 20.25 3.75 19.6904 3.75 19V5C3.75 4.30964 4.30964 3.75 5 3.75H19ZM19 21.75C20.5188 21.75 21.75 20.5188 21.75 19V5C21.75 3.48122 20.5188 2.25 19 2.25H5C3.48122 2.25 2.25 3.48122 2.25 5V19C2.25 20.5188 3.48122 21.75 5 21.75H19ZM15.5303 8.46973C15.2374 8.17683 14.7626 8.17683 14.4697 8.46973L12 10.9395L9.53027 8.46973L9.47363 8.41797C9.17905 8.17766 8.74433 8.19512 8.46973 8.46973C8.19512 8.74433 8.17766 9.17905 8.41797 9.47363L8.46973 9.53027L10.9395 12L8.46973 14.4697C8.17683 14.7626 8.17683 15.2374 8.46973 15.5303C8.76262 15.8232 9.23738 15.8232 9.53027 15.5303L12 13.0605L14.4697 15.5303L14.5264 15.582C14.8209 15.8223 15.2557 15.8049 15.5303 15.5303C15.8049 15.2557 15.8223 14.8209 15.582 14.5264L15.5303 14.4697L13.0605 12L15.5303 9.53027C15.8232 9.23738 15.8232 8.76262 15.5303 8.46973Z" fill="#212D34"/>
</svg>
