<svg width="24" height="24" viewBox="0 0 24 24" fill="none" xmlns="http://www.w3.org/2000/svg">
<path fill-rule="evenodd" clip-rule="evenodd" d="M22.0361 1.97462C20.9821 0.920554 19.3134 0.854943 18.1826 1.77736L17.9639 1.97462L9.46973 10.4697C9.39761 10.5419 9.3413 10.6276 9.30371 10.7217L9.27246 10.8184L8.27246 14.8184C8.20977 15.0695 8.28109 15.3354 8.46094 15.5215C8.64084 15.7075 8.9042 15.7876 9.15723 15.7334L13.1572 14.877C13.3002 14.8463 13.4315 14.775 13.5342 14.6709L22.0498 6.03224C23.091 4.97605 23.1508 3.31725 22.2324 2.1924L22.0361 1.97462ZM19.1299 2.94142C19.6715 2.49962 20.4697 2.53128 20.9746 3.03615L21.0693 3.13966C21.5092 3.67831 21.4808 4.47262 20.9824 4.97853L12.623 13.457L10.0186 14.0147L10.6768 11.3828L19.0254 3.03615L19.1299 2.94142ZM2.25 5.00003V19C2.25 20.5188 3.48122 21.75 5 21.75H19C20.5188 21.75 21.75 20.5188 21.75 19V12C21.75 11.5858 21.4142 11.25 21 11.25C20.5858 11.25 20.25 11.5858 20.25 12V19C20.25 19.6904 19.6904 20.25 19 20.25H5C4.30964 20.25 3.75 19.6904 3.75 19V5.00003C3.75 4.30967 4.30964 3.75003 5 3.75003H12C12.4142 3.75003 12.75 3.41424 12.75 3.00003C12.75 2.58581 12.4142 2.25003 12 2.25003H5C3.48122 2.25003 2.25 3.48124 2.25 5.00003Z" fill="#212D34"/>
</svg>
