<svg width="24" height="24" viewBox="0 0 24 24" fill="none" xmlns="http://www.w3.org/2000/svg">
<path fill-rule="evenodd" clip-rule="evenodd" d="M19 3.75C19.6904 3.75 20.25 4.30964 20.25 5V19C20.25 19.6904 19.6904 20.25 19 20.25H5C4.30964 20.25 3.75 19.6904 3.75 19V5C3.75 4.30964 4.30964 3.75 5 3.75H19ZM19 21.75C20.5188 21.75 21.75 20.5188 21.75 19V5C21.75 3.48122 20.5188 2.25 19 2.25H5C3.48122 2.25 2.25 3.48122 2.25 5V19C2.25 20.5188 3.48122 21.75 5 21.75H19ZM15.5303 9.46973C15.2557 9.19512 14.8209 9.17766 14.5264 9.41797L14.4697 9.46973L11 12.9395L9.53027 11.4697L9.47363 11.418C9.17905 11.1777 8.74433 11.1951 8.46973 11.4697C8.19512 11.7443 8.17766 12.1791 8.41797 12.4736L8.46973 12.5303L10.4697 14.5303C10.7626 14.8232 11.2374 14.8232 11.5303 14.5303L15.5303 10.5303L15.582 10.4736C15.8223 10.1791 15.8049 9.74433 15.5303 9.46973Z" fill="#212D34"/>
</svg>
